# xmcd
#
# Track frame offsets: 
#        211
#        18601
#        46249
#        67796
#        84808
#        102683
#        127321
#        162856
#        181392
#        197037
#        224786
#
# Disc length: 3293 seconds
#
# Revision: 3
# Processed by: cddbd v1.5.2PL0 Copyright (c) Steve Scherf et al.
# Submitted via: ExactAudioCopy v0.90b4
#
DISCID=9e0cdb0b
DTITLE=Baba Blues - Excavations: Blues Is a Rainbow
DYEAR=2000
DGENRE=Blues
TTITLE0=Blues Is a Rainbow
TTITLE1=Just 'Cos You Got the Power
TTITLE2=Help Me Through the Day
TTITLE3=I Ain't Superstitious
TTITLE4=Bricks in My Pillow
TTITLE5=You Need Love - Catfish Blues
TTITLE6=Fishermen
TTITLE7=The Unnecessery Event's Regretting Blues
TTITLE8=Last Night
TTITLE9=The Day My Mother Died
TTITLE10=Walk On
EXTD=
EXTT0=
EXTT1=
EXTT2=
EXTT3=
EXTT4=
EXTT5=
EXTT6=
EXTT7=
EXTT8=
EXTT9=
EXTT10=
PLAYORDER=
